<?xml version="1.0" standalone="no"?>
<!DOCTYPE svg PUBLIC "-//W3C//DTD SVG 20010904//EN"
 "http://www.w3.org/TR/2001/REC-SVG-20010904/DTD/svg10.dtd">
<svg version="1.0" xmlns="http://www.w3.org/2000/svg"
 width="50.000000pt" height="50.000000pt" viewBox="0 0 50.000000 50.000000"
 preserveAspectRatio="xMidYMid meet">

<g transform="translate(0.000000,50.000000) scale(0.100000,-0.100000)"
fill="#000000" stroke="none">
<path d="M161 483 c-62 -22 -124 -87 -146 -153 -75 -224 177 -418 372 -287
244 164 52 538 -226 440z m190 -41 c69 -36 110 -99 117 -177 6 -71 -32 -153
-86 -190 -52 -36 -62 -33 -62 20 0 39 3 46 30 60 45 23 63 57 56 107 -18 143
-18 143 -51 139 -16 -1 -64 -3 -105 -3 -41 0 -88 2 -105 3 -33 4 -33 4 -51
-139 -7 -50 11 -84 56 -107 17 -9 30 -22 30 -30 0 -22 -18 -18 -52 10 -31 27
-48 32 -48 15 0 -18 60 -70 80 -70 11 0 20 -7 20 -15 0 -47 -90 18 -125 90
-23 45 -27 65 -23 110 7 78 48 141 117 177 71 37 131 37 202 0z m-101 -77 c41
0 82 4 91 8 17 9 19 3 35 -106 8 -49 -14 -83 -66 -98 -40 -12 -49 -22 -30 -34
6 -3 10 -28 10 -56 l0 -49 -40 0 -40 0 0 49 c0 28 5 53 10 56 19 12 10 22 -30
34 -52 15 -74 49 -66 98 16 109 18 115 35 106 9 -4 50 -8 91 -8z"/>
</g>
</svg>
