<?xml version="1.0" standalone="no"?>
<!DOCTYPE svg PUBLIC "-//W3C//DTD SVG 20010904//EN"
 "http://www.w3.org/TR/2001/REC-SVG-20010904/DTD/svg10.dtd">
<svg version="1.0" xmlns="http://www.w3.org/2000/svg"
 width="50.000000pt" height="50.000000pt" viewBox="0 0 50.000000 50.000000"
 preserveAspectRatio="xMidYMid meet">

<g transform="translate(0.000000,50.000000) scale(0.100000,-0.100000)"
fill="#000000" stroke="none">
<path d="M25 475 c-25 -24 -25 -25 -25 -225 0 -270 -20 -250 250 -250 270 0
250 -20 250 250 0 270 20 250 -250 250 -200 0 -201 0 -225 -25z m433 -17 c17
-17 17 -399 0 -416 -17 -17 -399 -17 -416 0 -17 17 -17 399 0 416 17 17 399
17 416 0z"/>
<path d="M366 424 c-21 -21 -20 -37 3 -58 25 -23 59 -13 67 20 12 46 -37 72
-70 38z m44 -22 c0 -13 -12 -22 -22 -16 -10 6 -1 24 13 24 5 0 9 -4 9 -8z"/>
<path d="M183 360 c-61 -37 -81 -116 -43 -177 50 -83 170 -83 220 0 70 114
-63 247 -177 177z m138 -39 c64 -65 20 -171 -71 -171 -91 0 -135 106 -71 171
41 41 101 41 142 0z"/>
</g>
</svg>
