<?xml version="1.0" standalone="no"?>
<!DOCTYPE svg PUBLIC "-//W3C//DTD SVG 20010904//EN"
 "http://www.w3.org/TR/2001/REC-SVG-20010904/DTD/svg10.dtd">
<svg version="1.0" xmlns="http://www.w3.org/2000/svg"
 width="90.000000pt" height="90.000000pt" viewBox="0 0 90.000000 90.000000"
 preserveAspectRatio="xMidYMid meet">

<g transform="translate(0.000000,90.000000) scale(0.100000,-0.100000)"
fill="#000000" stroke="none">
<path d="M10 726 l0 -166 83 0 c136 0 188 41 195 153 4 71 -15 117 -61 151
-21 16 -47 21 -122 24 l-95 4 0 -166z m78 147 l-57 -4 -4 -152 -3 -152 -2 158
-2 157 63 -2 62 -2 -57 -3z m163 -40 c13 -16 12 -17 -3 -4 -10 7 -18 15 -18
17 0 8 8 3 21 -13z m-70 -29 c9 -8 18 -12 20 -10 2 2 5 -15 6 -37 4 -84 -30
-137 -89 -137 l-28 0 0 98 c0 54 3 102 7 106 10 10 65 -3 84 -20z m96 -91 c-3
-10 -5 -2 -5 17 0 19 2 27 5 18 2 -10 2 -26 0 -35z"/>
<path d="M690 868 c-57 -30 -80 -74 -80 -153 0 -114 48 -155 192 -163 l88 -5
0 172 0 171 -78 0 c-61 0 -87 -5 -122 -22z m110 -149 l0 -101 -32 6 c-47 9
-68 39 -68 98 0 39 5 54 25 73 13 14 36 25 50 25 l25 0 0 -101z"/>
<path d="M322 568 c3 -31 6 -33 46 -36 l42 -3 0 -130 0 -129 40 0 40 0 0 129
0 130 43 3 c39 3 42 5 45 36 l3 32 -131 0 -131 0 3 -32z"/>
<path d="M10 175 l0 -165 83 0 c140 0 189 41 195 163 5 127 -41 167 -193 167
l-85 0 0 -165z m174 73 c9 -13 16 -43 16 -72 0 -59 -27 -96 -72 -96 l-28 0 0
95 0 95 34 0 c25 0 39 -7 50 -22z"/>
<path d="M691 322 c-46 -23 -70 -58 -77 -114 -7 -53 3 -121 16 -113 6 3 7 0 5
-7 -7 -18 31 -52 74 -67 19 -6 67 -11 107 -11 l74 0 0 165 0 165 -82 0 c-59 0
-93 -5 -117 -18z m189 -147 l0 -155 -57 2 -58 2 53 3 52 4 0 150 c0 82 2 149
5 149 3 0 5 -70 5 -155z m-70 5 c0 -110 -3 -116 -55 -102 -40 11 -70 69 -60
119 8 47 46 83 85 83 l30 0 0 -100z m-183 -27 c-3 -10 -5 -2 -5 17 0 19 2 27
5 18 2 -10 2 -26 0 -35z"/>
</g>
</svg>
