<?xml version="1.0" standalone="no"?>
<!DOCTYPE svg PUBLIC "-//W3C//DTD SVG 20010904//EN"
 "http://www.w3.org/TR/2001/REC-SVG-20010904/DTD/svg10.dtd">
<svg version="1.0" xmlns="http://www.w3.org/2000/svg"
 width="500.000000pt" height="500.000000pt" viewBox="0 0 500.000000 500.000000"
 preserveAspectRatio="xMidYMid meet">
<metadata>
Created by potrace 1.16, written by Peter Selinger 2001-2019
</metadata>
<g transform="translate(0.000000,500.000000) scale(0.100000,-0.100000)"
fill="#000000" stroke="none">
<path d="M4239 4959 c-311 -21 -552 -141 -708 -353 -75 -101 -127 -231 -156
-386 -20 -112 -24 -349 -6 -455 53 -317 240 -546 521 -639 172 -57 183 -58
648 -63 l432 -5 -2 954 -3 953 -305 1 c-168 1 -357 -2 -421 -7z m211 -950 l0
-531 -137 4 c-125 4 -144 7 -199 32 -155 70 -224 218 -224 481 0 234 57 392
170 470 74 52 161 74 283 75 l107 0 0 -531z"/>
<path d="M40 4015 l0 -945 374 0 c455 0 552 13 732 95 240 110 393 300 465
580 21 80 24 113 24 300 0 189 -2 219 -24 300 -88 339 -321 540 -695 600 -69
11 -186 15 -483 15 l-393 0 0 -945z m737 536 c121 -18 230 -88 276 -177 76
-147 88 -435 26 -622 -28 -85 -75 -149 -140 -195 -72 -49 -139 -67 -281 -74
l-118 -6 0 542 0 541 88 0 c48 0 115 -4 149 -9z"/>
<path d="M1780 3160 l0 -210 230 0 230 0 0 -740 0 -740 260 0 260 0 0 740 0
740 230 0 230 0 0 210 0 210 -720 0 -720 0 0 -210z"/>
<path d="M35 1918 c-3 -7 -4 -436 -3 -953 l3 -940 365 0 c376 1 476 8 605 45
273 79 473 253 566 495 87 223 102 528 38 765 -82 306 -312 507 -659 577 -106
22 -907 31 -915 11z m852 -442 c157 -72 224 -213 224 -476 0 -224 -37 -347
-133 -444 -78 -77 -138 -98 -300 -104 l-128 -4 0 532 0 532 138 -4 c125 -3
142 -6 199 -32z"/>
<path d="M4152 1919 c-401 -52 -667 -287 -764 -676 -19 -75 -22 -117 -22 -283
-1 -242 16 -334 91 -484 118 -238 350 -386 666 -426 45 -5 251 -10 459 -10
l378 0 0 945 0 945 -372 -1 c-205 -1 -401 -5 -436 -10z m308 -939 l0 -540 -89
0 c-101 0 -223 21 -273 46 -131 66 -196 193 -214 414 -7 101 9 256 38 343 48
150 144 234 303 267 22 4 84 8 138 9 l97 1 0 -540z"/>
</g>
</svg>
