<?xml version="1.0" standalone="no"?>
<!DOCTYPE svg PUBLIC "-//W3C//DTD SVG 20010904//EN"
 "http://www.w3.org/TR/2001/REC-SVG-20010904/DTD/svg10.dtd">
<svg version="1.0" xmlns="http://www.w3.org/2000/svg"
 width="50.000000pt" height="50.000000pt" viewBox="0 0 50.000000 50.000000"
 preserveAspectRatio="xMidYMid meet">

<g transform="translate(0.000000,50.000000) scale(0.100000,-0.100000)"
fill="#000000" stroke="none">
<path d="M259 421 c-17 -17 -29 -40 -29 -55 0 -14 -6 -26 -12 -26 -27 1 -104
42 -136 73 -42 41 -52 28 -52 -70 0 -80 32 -172 66 -191 20 -11 18 -13 -71
-47 -17 -6 -12 -11 32 -32 59 -27 162 -33 231 -12 90 27 151 109 152 205 0 41
6 59 30 92 22 31 26 42 15 42 -11 0 -14 7 -9 25 6 24 5 24 -26 14 -23 -9 -38
-9 -56 0 -47 21 -103 14 -135 -18z m126 -11 c3 -5 16 -10 27 -10 18 0 20 -4
13 -37 -4 -21 -10 -65 -14 -98 -15 -130 -84 -188 -226 -188 -105 0 -118 12
-44 43 66 28 74 40 28 40 -34 0 -69 15 -69 30 0 6 11 10 24 10 37 0 40 17 4
24 -32 6 -68 32 -68 48 0 4 14 8 31 8 l31 0 -30 25 c-27 23 -46 67 -34 79 2 3
20 -6 38 -21 39 -29 97 -52 137 -53 25 0 27 3 27 39 0 30 6 44 22 55 25 18 93
21 103 6z"/>
</g>
</svg>
